# Blender v2.78 (sub 0) OBJ File: 'Arc_Edited.blend'
# www.blender.org
mtllib arc.mtl
o Grim_Bear_Arc
v 0.786138 2.084460 0.187272
v 0.543999 2.453394 0.187272
v 0.447370 2.141513 0.156084
v 0.447370 2.141514 0.018524
v 0.648620 1.834879 0.018524
v 0.648620 1.834879 0.168913
v 0.563538 -0.020865 0.168913
v 0.161233 2.652748 0.187272
v 0.563538 -0.020865 0.018524
v 0.000000 2.652748 0.187272
v 0.000000 2.307203 0.156084
v 0.129240 2.307203 0.156084
v 1.014019 2.179881 0.230734
v 0.699913 2.672780 0.230734
v 0.543999 2.453393 0.205596
v 0.786138 2.084460 0.223496
v 0.683016 -0.020865 0.223496
v 0.239190 2.900865 0.262641
v 0.683016 -0.020865 0.187272
v 0.000000 2.900865 0.262642
v 0.000000 2.652748 0.233724
v 0.161233 2.652748 0.233724
v 0.699913 2.672780 0.018524
v 0.239190 2.900865 0.018524
v 0.000000 2.900865 0.018524
v -0.786139 2.084460 0.187272
v -0.648620 1.834879 0.168913
v -0.447370 2.141513 0.156084
v -0.648620 1.834879 0.018524
v -0.681573 -0.020865 0.203009
v -0.563538 -0.020865 0.168913
v -0.129240 2.307203 0.156084
v -0.161233 2.652748 0.187272
v -0.563538 -0.020865 0.018524
v -0.129240 2.307203 0.018524
v -0.447370 2.141514 0.018524
v -1.014019 2.179881 0.230734
v -0.786139 2.084460 0.223496
v -0.543999 2.453393 0.205596
v -1.014019 -0.020865 0.251039
v -0.683017 -0.020865 0.223496
v -0.161233 2.652748 0.233724
v -0.239190 2.900865 0.262641
v -0.683017 -0.020865 0.187272
v -0.543999 2.453394 0.187272
v -1.014019 2.179881 0.018524
v -0.699914 2.672780 0.018524
v -0.699914 2.672780 0.230734
v -0.239190 2.900865 0.018524
v 0.786138 2.084460 -0.150223
v 0.648620 1.834879 -0.131864
v 0.447370 2.141513 -0.119035
v 0.681573 -0.020865 -0.165961
v 0.563538 -0.020865 -0.131864
v 0.129240 2.307203 -0.119035
v 0.161233 2.652748 -0.150223
v 0.000000 2.652748 -0.150224
v 0.129240 2.307203 0.018524
v 1.014019 2.179881 -0.193685
v 0.786138 2.084460 -0.186448
v 0.543999 2.453393 -0.168548
v 1.014019 -0.020865 -0.213991
v 0.683016 -0.020865 -0.186448
v 0.161233 2.652748 -0.196675
v 0.239190 2.900865 -0.225593
v 0.683016 -0.020865 -0.150223
v 0.000000 2.900865 -0.225593
v 0.543999 2.453394 -0.150224
v 1.014019 2.179881 0.018524
v 0.699913 2.672780 -0.193686
v -0.786139 2.084460 -0.150223
v -0.543999 2.453394 -0.150224
v -0.447370 2.141513 -0.119035
v -0.648620 1.834879 -0.131864
v -0.563538 -0.020865 -0.131864
v -0.161233 2.652748 -0.150223
v 0.000000 2.307203 -0.119035
v -0.129240 2.307203 -0.119035
v -1.014019 2.179881 -0.193685
v -0.699914 2.672780 -0.193686
v -0.543999 2.453393 -0.168548
v -0.786139 2.084460 -0.186448
v -0.683017 -0.020865 -0.186448
v -0.239190 2.900865 -0.225593
v -0.683017 -0.020865 -0.150223
v 0.000000 2.652748 -0.196675
v -0.161233 2.652748 -0.196675
v 0.681573 -0.020865 0.203009
v 1.014019 -0.020865 0.251039
v -0.681573 -0.020865 -0.165961
v -1.014019 -0.020865 -0.213991
vt 0.0197 0.4589
vt 0.2568 0.5308
vt 0.2593 0.4663
vt 0.0197 0.5295
vt 0.3528 0.6372
vt 0.4527 0.7532
vt 0.5637 0.6721
vt 0.6376 0.6499
vt 0.5537 0.5724
vt 0.4580 0.5688
vt 0.4494 0.0269
vt 0.6476 0.8408
vt 0.5481 0.0281
vt 0.7443 0.8572
vt 0.8200 0.7654
vt 0.7410 0.7480
vt 0.0993 0.6894
vt 0.2926 0.8330
vt 0.4100 0.7752
vt 0.4282 0.7688
vt 0.2859 0.6590
vt 0.2532 0.6625
vt 0.2522 0.0452
vt 0.5529 0.9198
vt 0.2869 0.0448
vt 0.6964 0.9423
vt 0.7450 0.8706
vt 0.6407 0.8554
vt 0.2104 0.8662
vt 0.4952 0.9624
vt 0.6481 0.9912
vt 0.3528 0.6372
vt 0.4580 0.5688
vt 0.5637 0.6721
vt 0.5537 0.5724
vt 0.3609 0.0276
vt 0.4494 0.0269
vt 0.7410 0.7480
vt 0.6476 0.8408
vt 0.5481 0.0281
vt 0.7984 0.7161
vt 0.6376 0.6499
vt 0.0993 0.6894
vt 0.2532 0.6625
vt 0.4100 0.7752
vt 0.2859 0.6590
vt 0.1011 0.0456
vt 0.2522 0.0452
vt 0.6407 0.8554
vt 0.5529 0.9198
vt 0.2869 0.0448
vt 0.6512 0.8461
vt 0.4282 0.7688
vt -0.0010 0.7172
vt 0.2104 0.8662
vt 0.2926 0.8330
vt 0.4952 0.9624
vt 0.3528 0.6372
vt 0.4580 0.5688
vt 0.5637 0.6721
vt 0.3609 0.0276
vt 0.4494 0.0269
vt 0.7410 0.7480
vt 0.6476 0.8408
vt 0.7443 0.8572
vt 0.7984 0.7161
vt 0.0993 0.6894
vt 0.2532 0.6625
vt 0.4100 0.7752
vt 0.2859 0.6590
vt 0.1011 0.0456
vt 0.2522 0.0452
vt 0.6407 0.8554
vt 0.5529 0.9198
vt 0.2869 0.0448
vt 0.6964 0.9423
vt 0.6512 0.8461
vt 0.4282 0.7688
vt -0.0010 0.7172
vt 0.2926 0.8330
vt 0.3528 0.6372
vt 0.4527 0.7532
vt 0.5637 0.6721
vt 0.4580 0.5688
vt 0.4494 0.0269
vt 0.6476 0.8408
vt 0.8200 0.7654
vt 0.7410 0.7480
vt 0.0993 0.6894
vt 0.2926 0.8330
vt 0.4100 0.7752
vt 0.4282 0.7688
vt 0.2859 0.6590
vt 0.2532 0.6625
vt 0.2522 0.0452
vt 0.5529 0.9198
vt 0.2869 0.0448
vt 0.7450 0.8706
vt 0.6407 0.8554
vt 0.3609 0.0276
vt 0.1011 0.0456
vt 0.6512 0.8461
vt 0.4527 0.7532
vt 0.4527 0.7532
vt 0.3609 0.0276
vt 0.1011 0.0456
vt 0.6512 0.8461
vt 0.2772 0.4963
vt 0.0000 0.0000
vt 0.2445 -0.0012
vt 0.0437 0.5000
vt 0.0000 0.5000
vt 0.2870 0.0000
vt 0.2716 0.4951
vt 0.0437 0.0000
vt 0.0000 0.5000
vt 0.2568 0.4663
vt 0.2544 0.4988
vt 0.2396 0.4417
vt 0.0000 0.5000
vt 0.0074 0.4429
vt 0.0074 0.4663
vt 0.2396 0.4988
vn 0.0000 -1.0000 0.0000
vn -0.0902 -0.0253 0.9956
vn -0.0527 -0.0654 0.9965
vn -0.0648 -0.0525 0.9965
vn -0.6728 -0.7398 -0.0000
vn -0.6706 -0.7418 0.0000
vn -0.9644 -0.2643 -0.0000
vn -0.1069 -0.0011 0.9943
vn -0.2261 0.0169 0.9740
vn -0.0163 -0.0723 0.9972
vn -0.9652 -0.2614 0.0000
vn -0.9990 0.0458 0.0000
vn 0.0000 -0.0738 0.9973
vn -0.0198 -0.0720 0.9972
vn -0.4619 -0.8869 -0.0000
vn 0.4118 0.2834 0.8661
vn 0.5086 0.5427 0.6685
vn -0.0287 -0.0619 0.9977
vn -0.6692 -0.7431 -0.0000
vn -0.9648 -0.2628 -0.0000
vn -0.0298 0.0090 0.9995
vn -0.0653 0.0071 0.9978
vn 0.1788 0.6966 0.6948
vn -0.9658 -0.2594 -0.0000
vn -0.9988 0.0489 0.0000
vn -0.0000 0.6726 0.7400
vn -0.0000 -0.0951 0.9955
vn 0.0043 -0.0965 0.9953
vn 0.6680 0.7441 0.0000
vn 0.2278 0.9737 0.0000
vn 0.0000 1.0000 0.0000
vn 0.0902 -0.0253 0.9956
vn 0.1069 -0.0011 0.9943
vn 0.0648 -0.0525 0.9965
vn 0.9652 -0.2614 0.0000
vn 0.9644 -0.2643 -0.0000
vn 0.6728 -0.7398 -0.0000
vn 0.2304 0.0174 0.9729
vn 0.2261 0.0169 0.9740
vn 0.0198 -0.0720 0.9972
vn 0.0163 -0.0723 0.9972
vn 0.9990 0.0458 0.0000
vn 0.4619 -0.8869 0.0000
vn 0.6706 -0.7418 0.0000
vn -0.4118 0.2834 0.8661
vn 0.0298 0.0090 0.9995
vn 0.0287 -0.0619 0.9977
vn 0.9658 -0.2593 -0.0000
vn 0.9648 -0.2628 -0.0000
vn 0.6692 -0.7431 -0.0000
vn 0.0681 0.0075 0.9976
vn 0.0653 0.0071 0.9978
vn -0.0043 -0.0965 0.9953
vn -0.1788 0.6966 0.6948
vn 0.9988 0.0489 0.0000
vn -0.8433 0.5374 0.0000
vn -0.6680 0.7441 0.0000
vn -0.5086 0.5427 0.6685
vn -0.2278 0.9737 0.0000
vn -0.0902 -0.0253 -0.9956
vn -0.6487 -0.1548 -0.7451
vn -0.4641 -0.4970 -0.7332
vn -0.2304 0.0174 -0.9729
vn -0.7892 0.0403 -0.6128
vn -0.1969 -0.4083 -0.8913
vn -0.0163 -0.0723 -0.9972
vn -0.0000 -0.0738 -0.9973
vn 0.4118 0.2834 -0.8661
vn -0.0298 0.0090 -0.9995
vn -0.0287 -0.0619 -0.9977
vn -0.9658 -0.2592 -0.0000
vn -0.0681 0.0075 -0.9976
vn -0.0653 0.0071 -0.9978
vn 0.0043 -0.0965 -0.9953
vn 0.1788 0.6966 -0.6948
vn -0.0000 0.6726 -0.7400
vn 0.8433 0.5374 0.0000
vn 0.5086 0.5427 -0.6685
vn 0.0902 -0.0253 -0.9956
vn 0.0527 -0.0654 -0.9965
vn 0.4641 -0.4970 -0.7332
vn 0.6487 -0.1548 -0.7451
vn 0.7892 0.0403 -0.6128
vn 0.0163 -0.0723 -0.9972
vn 0.1969 -0.4083 -0.8913
vn -0.4118 0.2834 -0.8661
vn -0.5086 0.5427 -0.6685
vn 0.0287 -0.0619 -0.9977
vn 0.0298 0.0090 -0.9995
vn 0.0653 0.0071 -0.9978
vn -0.1788 0.6966 -0.6948
vn 0.9658 -0.2592 -0.0000
vn 0.0000 -0.0951 -0.9955
vn -0.0043 -0.0965 -0.9953
vn -0.2304 0.0174 0.9729
vn -0.0681 0.0075 0.9977
vn 0.0527 -0.0654 0.9965
vn -0.0527 -0.0654 -0.9965
vn 0.2304 0.0174 -0.9729
vn 0.0681 0.0075 -0.9976
vn 1.0000 -0.0004 -0.0054
vn 0.9999 -0.0149 0.0017
vn 0.9999 -0.0149 -0.0018
vn 1.0000 -0.0004 0.0054
vn -0.9999 -0.0149 0.0017
vn -1.0000 -0.0004 -0.0054
vn -0.9999 -0.0149 -0.0018
vn -1.0000 -0.0004 0.0054
usemtl Material__509
s off
f 55/1/1 32/2/1 78/3/1
f 55/1/1 12/4/1 32/2/1
s 1
f 1/5/2 2/6/3 3/7/4
f 3/7/5 4/8/6 5/9/7
f 1/5/2 6/10/8 7/11/9
f 3/7/4 2/6/3 8/12/10
f 6/10/11 5/9/7 9/13/12
f 10/14/13 11/15/13 12/16/14
f 4/8/6 3/7/5 12/16/15
f 13/17/16 14/18/17 15/19/18
f 15/19/19 2/20/6 1/21/20
f 13/17/16 16/22/21 17/23/22
f 15/19/18 14/18/17 18/24/23
f 16/22/24 1/21/20 19/25/25
f 20/26/26 21/27/27 22/28/28
f 2/20/6 15/19/19 22/28/15
f 23/29/29 14/18/17 13/17/16
f 24/30/30 18/24/23 14/18/17
f 25/31/31 20/26/26 18/24/23
f 26/32/32 27/33/33 28/34/34
f 27/33/35 29/35/36 28/34/37
f 26/32/32 30/36/38 31/37/39
f 28/34/34 32/38/40 33/39/41
f 31/37/42 34/40/42 27/33/35
f 33/39/41 32/38/40 10/14/13
f 35/41/43 32/38/43 36/42/44
f 37/43/45 38/44/46 39/45/47
f 38/44/48 26/46/49 39/45/50
f 37/43/45 40/47/51 41/48/52
f 39/45/47 42/49/53 43/50/54
f 41/48/55 44/51/55 38/44/48
f 43/50/54 42/49/53 20/26/26
f 33/52/43 42/49/43 45/53/44
f 46/54/56 37/43/45 47/55/57
f 47/55/57 48/56/58 49/57/59
f 49/57/59 43/50/54 25/31/31
f 50/58/60 51/59/61 52/60/62
f 51/59/61 5/9/7 52/60/62
f 50/58/60 53/61/63 54/62/64
f 52/60/62 55/63/65 56/64/66
f 54/62/64 9/13/12 51/59/61
f 56/64/66 55/63/65 57/65/67
f 58/66/15 55/63/65 4/8/6
f 59/67/68 60/68/69 61/69/70
f 60/68/71 50/70/20 61/69/19
f 59/67/68 62/71/72 63/72/73
f 61/69/70 64/73/74 65/74/75
f 63/72/25 66/75/25 60/68/71
f 65/74/75 64/73/74 67/76/76
f 56/77/15 64/73/15 68/78/6
f 69/79/77 59/67/68 23/29/29
f 23/29/29 70/80/78 24/30/30
f 24/30/30 65/74/75 25/31/31
f 71/81/79 72/82/80 73/83/81
f 73/83/81 36/42/44 29/35/36
f 71/81/79 74/84/82 75/85/83
f 73/83/81 72/82/80 76/86/84
f 74/84/82 29/35/36 34/40/42
f 57/65/67 77/87/67 78/88/85
f 36/42/44 73/83/81 78/88/85
f 79/89/86 80/90/87 81/91/88
f 81/91/50 72/92/44 71/93/49
f 79/89/86 82/94/89 83/95/90
f 81/91/88 80/90/87 84/96/91
f 82/94/92 71/93/49 85/97/55
f 67/76/76 86/98/93 87/99/94
f 72/92/44 81/91/50 87/99/43
f 47/55/57 80/90/87 79/89/86
f 49/57/59 84/96/91 80/90/87
f 25/31/31 67/76/76 84/96/91
f 3/7/4 6/10/8 1/5/2
f 5/9/7 6/10/11 3/7/5
f 7/11/9 88/100/95 1/5/2
f 8/12/10 12/16/14 3/7/4
f 9/13/12 7/11/12 6/10/11
f 12/16/14 8/12/10 10/14/13
f 12/16/15 58/66/15 4/8/6
f 15/19/18 16/22/21 13/17/16
f 1/21/20 16/22/24 15/19/19
f 17/23/22 89/101/96 13/17/16
f 18/24/23 22/28/28 15/19/18
f 19/25/25 17/23/25 16/22/24
f 22/28/28 18/24/23 20/26/26
f 22/28/15 8/102/15 2/20/6
f 13/17/16 69/79/77 23/29/29
f 14/18/17 23/29/29 24/30/30
f 18/24/23 24/30/30 25/31/31
f 28/34/34 45/103/97 26/32/32
f 29/35/36 36/42/44 28/34/37
f 31/37/39 27/33/33 26/32/32
f 33/39/41 45/103/97 28/34/34
f 34/40/42 29/35/36 27/33/35
f 32/38/40 11/15/13 10/14/13
f 32/38/43 28/34/37 36/42/44
f 39/45/47 48/56/58 37/43/45
f 26/46/49 45/53/44 39/45/50
f 41/48/52 38/44/46 37/43/45
f 43/50/54 48/56/58 39/45/47
f 44/51/55 26/46/49 38/44/48
f 42/49/53 21/27/27 20/26/26
f 42/49/43 39/45/50 45/53/44
f 37/43/45 48/56/58 47/55/57
f 48/56/58 43/50/54 49/57/59
f 43/50/54 20/26/26 25/31/31
f 52/60/62 68/104/98 50/58/60
f 5/9/7 4/8/6 52/60/62
f 54/62/64 51/59/61 50/58/60
f 56/64/66 68/104/98 52/60/62
f 9/13/12 5/9/7 51/59/61
f 55/63/65 77/87/67 57/65/67
f 55/63/65 52/60/62 4/8/6
f 61/69/70 70/80/78 59/67/68
f 50/70/20 68/78/6 61/69/19
f 63/72/73 60/68/69 59/67/68
f 65/74/75 70/80/78 61/69/70
f 66/75/25 50/70/20 60/68/71
f 64/73/74 86/98/93 67/76/76
f 64/73/15 61/69/19 68/78/6
f 59/67/68 70/80/78 23/29/29
f 70/80/78 65/74/75 24/30/30
f 65/74/75 67/76/76 25/31/31
f 73/83/81 74/84/82 71/81/79
f 29/35/36 74/84/82 73/83/81
f 75/85/83 90/105/99 71/81/79
f 76/86/84 78/88/85 73/83/81
f 34/40/42 75/85/83 74/84/82
f 78/88/85 76/86/84 57/65/67
f 78/88/85 35/41/43 36/42/44
f 81/91/88 82/94/89 79/89/86
f 71/93/49 82/94/92 81/91/50
f 83/95/90 91/106/100 79/89/86
f 84/96/91 87/99/94 81/91/88
f 85/97/55 83/95/55 82/94/92
f 87/99/94 84/96/91 67/76/76
f 87/99/43 76/107/43 72/92/44
f 79/89/86 46/54/56 47/55/57
f 80/90/87 47/55/57 49/57/59
f 84/96/91 49/57/59 25/31/31
f 59/108/101 89/109/102 62/110/103
f 59/108/101 13/111/104 89/109/102
f 40/112/105 79/113/106 91/114/107
f 40/112/105 37/115/108 79/113/106
f 33/116/1 22/117/1 42/118/1
f 56/119/1 87/120/1 64/121/1
f 33/116/1 8/122/1 22/117/1
f 56/119/1 76/123/1 87/120/1
