# Blender v2.78 (sub 0) OBJ File: ''
# www.blender.org
mtllib portal.mtl
o Cube.001
v 0.798825 -0.027969 -0.102007
v 0.798825 2.304180 0.112964
v 0.798825 2.304180 -0.102007
v 0.798825 -0.027969 0.112964
v -0.821125 2.304180 0.112964
v -0.821125 -0.027969 0.112964
v -0.821125 2.304180 -0.102007
v -0.821125 -0.027969 -0.102007
vt 0.7500 0.0000
vt 0.5000 0.5000
vt 0.7500 0.5000
vt 1.0000 0.0000
vt 0.0000 1.0000
vt 1.0000 1.0000
vt 0.5000 1.0000
vt 1.0000 0.7500
vt 1.0000 1.0000
vt 1.0000 0.0000
vt 0.0000 1.0000
vt 1.0000 1.0000
vt 1.0000 0.0000
vt 1.0000 0.5000
vt 0.5000 0.7500
vt 1.0000 0.5000
vt 1.0000 0.7500
vt 0.5000 1.0000
vt 1.0000 0.7500
vt 0.0000 0.0000
vt 0.7500 0.0000
vt 0.5000 0.0000
vt 0.5000 0.5000
vt 0.0000 0.0000
vt 0.5000 0.7500
vt 1.0000 0.5000
vt 0.7500 0.5000
vn -1.0000 -0.0000 0.0000
vn 0.0000 0.0000 -1.0000
vn 1.0000 -0.0000 0.0000
vn 0.0000 -0.0000 1.0000
vn 0.0000 -1.0000 0.0000
vn 0.0000 1.0000 0.0000
usemtl None
s 1
f 1/1/1 2/2/1 3/3/1
f 4/4/2 5/5/2 2/6/2
f 6/7/3 7/8/3 5/9/3
f 8/10/4 3/11/4 7/12/4
f 5/13/5 3/3/5 2/14/5
f 4/15/6 8/16/6 6/17/6
f 1/18/1 4/15/1 2/19/1
f 4/4/2 6/20/2 5/5/2
f 6/21/3 8/22/3 7/23/3
f 8/10/4 1/24/4 3/11/4
f 5/25/5 7/23/5 3/26/5
f 4/4/6 1/1/6 8/27/6
