# Blender v2.78 (sub 0) OBJ File: ''
# www.blender.org
mtllib Building_1.mtl
o Cube
v 14.625001 0.500000 -18.900000
v 14.625001 0.500000 18.900002
v -14.625003 0.500000 18.899998
v -14.624996 0.500000 -18.900009
v 14.625008 133.500000 -18.899992
v 14.624991 133.500000 18.900013
v -14.625006 133.500000 18.899994
v -14.625000 133.500000 -18.900002
vt 0.3333 0.6667
vt 0.0000 1.0000
vt 0.0000 0.6667
vt 0.3333 0.6667
vt 0.0000 0.3333
vt 0.3333 0.3333
vt 0.6667 0.0000
vt 0.6667 0.3333
vt 0.0000 0.3333
vt 0.3333 0.0000
vt 0.3333 0.3333
vt 0.6667 0.3333
vt 1.0000 0.0000
vt 1.0000 0.3333
vt 0.3333 1.0000
vt 0.0000 0.6667
vt 0.3333 0.0000
vt 0.0000 0.0000
vt 0.6667 0.0000
vt 0.6667 0.6667
vn 0.0000 -1.0000 0.0000
vn 0.0000 1.0000 -0.0000
vn 1.0000 -0.0000 0.0000
vn -0.0000 0.0000 1.0000
vn -1.0000 -0.0000 -0.0000
vn 0.0000 0.0000 -1.0000
usemtl Material
s off
f 2/1/1 4/2/1 1/3/1
f 8/4/2 6/5/2 5/6/2
f 5/6/3 2/7/3 1/8/3
f 2/9/4 7/10/4 3/11/4
f 7/12/5 4/13/5 3/14/5
f 1/8/6 8/4/6 5/6/6
f 2/1/1 3/15/1 4/2/1
f 8/4/2 7/16/2 6/5/2
f 5/6/3 6/17/3 2/7/3
f 2/9/4 6/18/4 7/10/4
f 7/12/5 8/19/5 4/13/5
f 1/8/6 4/20/6 8/4/6
