# Blender v2.78 (sub 0) OBJ File: ''
# www.blender.org
mtllib Street_FORWARD.mtl
o Road-2-Lane-Straight_xyz_uv_100x100
v -100.000000 0.000000 -100.000000
v -90.000000 0.000000 -100.000000
v -89.999992 0.000008 0.000000
v -99.999992 0.000008 0.000000
v -100.000000 2.000000 -100.000000
v -99.999992 2.000008 0.000000
v -89.999992 2.000008 0.000000
v -90.000000 2.000000 -100.000000
v 0.000008 0.000012 -0.000008
v 0.000000 0.000004 -100.000008
v 0.000000 2.000004 -100.000008
v 0.000008 2.000012 -0.000008
v -89.500000 0.000000 -100.000000
v -89.499992 0.000008 0.000000
v -89.500000 1.250000 -100.000000
v -89.499992 1.250008 0.000000
v -85.500000 0.000001 -100.000000
v -85.499992 0.000008 0.000000
v -85.500000 1.250001 -100.000000
v -85.499992 1.250008 0.000000
v -85.000000 0.000001 -100.000000
v -84.999992 0.000008 0.000000
v -85.000000 2.000001 -100.000000
v -84.999992 2.000008 0.000000
v -84.000000 0.000001 -100.000000
v -83.999992 0.000008 0.000000
v -84.000000 2.000001 -100.000000
v -83.999992 2.000008 0.000000
v -83.500000 0.000001 -100.000000
v -83.499992 0.000008 0.000000
v -83.500000 0.500001 -100.000000
v -83.499992 0.500008 0.000000
v -82.500000 0.000001 -100.000000
v -82.499992 0.000008 0.000000
v -82.500000 0.500001 -100.000000
v -82.499992 0.500008 0.000000
v -78.500000 0.000001 -100.000000
v -78.499992 0.000008 0.000000
v -78.500000 1.250001 -100.000000
v -78.499992 1.250008 0.000000
v -78.000000 0.000001 -100.000000
v -77.999992 0.000009 0.000000
v -78.000000 1.250001 -100.000000
v -77.999992 1.250008 0.000000
v -77.000000 0.000001 -100.000000
v -76.999992 0.000009 0.000000
v -77.000000 1.250001 -100.000000
v -76.999992 1.250008 0.000000
v -49.500000 0.000002 -100.000000
v -49.499992 0.000010 0.000000
v -50.499992 0.000010 0.000000
v -50.500000 0.000002 -100.000000
v -49.500000 1.250002 -100.000008
v -50.500000 1.250002 -100.000008
v -49.499992 1.250010 0.000000
v -50.499992 1.250010 0.000000
v -22.999992 0.000011 -0.000008
v -23.000000 0.000003 -100.000008
v -22.000000 0.000003 -100.000008
v -21.999992 0.000011 -0.000008
v -23.000000 1.250003 -100.000008
v -22.000000 1.250003 -100.000008
v -22.999992 1.250011 -0.000008
v -21.999992 1.250011 -0.000008
v -21.500000 0.000003 -100.000008
v -21.499992 0.000011 -0.000008
v -21.500000 1.250003 -100.000008
v -21.499992 1.250011 -0.000008
v -17.500000 0.000004 -100.000008
v -17.499992 0.000011 -0.000008
v -17.500000 0.500004 -100.000008
v -17.499992 0.500011 -0.000008
v -16.500000 0.000004 -100.000008
v -16.499992 0.000011 -0.000008
v -16.500000 0.500004 -100.000008
v -16.499992 0.500011 -0.000008
v -16.000000 0.000004 -100.000008
v -15.999992 0.000011 -0.000008
v -16.000000 2.000004 -100.000008
v -15.999992 2.000011 -0.000008
v -15.000000 0.000004 -100.000008
v -14.999992 0.000011 -0.000008
v -15.000000 2.000004 -100.000008
v -14.999992 2.000011 -0.000008
v -14.500000 0.000004 -100.000008
v -14.499992 0.000011 -0.000008
v -14.500000 1.250004 -100.000008
v -14.499992 1.250011 -0.000008
v -10.500000 0.000004 -100.000008
v -10.499992 0.000011 -0.000008
v -10.500000 1.250004 -100.000008
v -10.499992 1.250011 -0.000008
v -10.000000 0.000004 -100.000008
v -9.999992 0.000011 -0.000008
v -10.000000 2.000004 -100.000008
v -9.999992 2.000012 -0.000008
v -100.000000 0.000000 -100.000000
v -99.999992 0.000008 0.000000
v -99.999992 2.000008 0.000000
v -100.000000 2.000000 -100.000000
v -99.999992 0.000008 0.000000
v -89.999992 0.000008 0.000000
v -89.999992 2.000008 0.000000
v -99.999992 2.000008 0.000000
v -90.000000 0.000000 -100.000000
v -100.000000 0.000000 -100.000000
v -100.000000 2.000000 -100.000000
v -90.000000 2.000000 -100.000000
v -89.999992 0.000008 0.000000
v -90.000000 0.000000 -100.000000
v -89.500000 0.000000 -100.000000
v -90.000000 2.000000 -100.000000
v -89.999992 2.000008 0.000000
v -89.500000 1.250000 -100.000000
v -89.499992 0.000008 0.000000
v -89.499992 1.250008 0.000000
v -85.500000 0.000001 -100.000000
v -89.500000 1.250000 -100.000000
v -89.499992 1.250008 0.000000
v -85.500000 1.250001 -100.000000
v -85.499992 0.000008 0.000000
v -85.499992 1.250008 0.000000
v -85.000000 0.000001 -100.000000
v -85.500000 1.250001 -100.000000
v -85.499992 1.250008 0.000000
v -85.000000 2.000001 -100.000000
v -84.999992 0.000008 0.000000
v -84.999992 2.000008 0.000000
v -84.000000 0.000001 -100.000000
v -85.000000 2.000001 -100.000000
v -84.999992 2.000008 0.000000
v -84.000000 2.000001 -100.000000
v -83.999992 0.000008 0.000000
v -83.999992 2.000008 0.000000
v -83.500000 0.000001 -100.000000
v -84.000000 2.000001 -100.000000
v -83.999992 2.000008 0.000000
v -83.500000 0.500001 -100.000000
v -83.499992 0.000008 0.000000
v -83.499992 0.500008 0.000000
v -82.500000 0.000001 -100.000000
v -83.500000 0.500001 -100.000000
v -83.499992 0.500008 0.000000
v -82.500000 0.500001 -100.000000
v -82.499992 0.000008 0.000000
v -82.499992 0.500008 0.000000
v -78.500000 0.000001 -100.000000
v -82.500000 0.500001 -100.000000
v -82.499992 0.500008 0.000000
v -78.500000 1.250001 -100.000000
v -78.499992 0.000008 0.000000
v -78.499992 1.250008 0.000000
v -78.000000 0.000001 -100.000000
v -78.500000 1.250001 -100.000000
v -78.499992 1.250008 0.000000
v -78.000000 1.250001 -100.000000
v -77.999992 0.000009 0.000000
v -77.999992 1.250008 0.000000
v -77.000000 0.000001 -100.000000
v -77.000000 1.250001 -100.000000
v -76.999992 0.000009 0.000000
v -76.999992 1.250008 0.000000
v -49.500000 0.000002 -100.000000
v -50.500000 0.000002 -100.000000
v -49.500000 1.250002 -100.000008
v -50.500000 1.250002 -100.000008
v -49.499992 0.000010 0.000000
v -49.499992 1.250010 0.000000
v -50.499992 1.250010 0.000000
v -50.499992 0.000010 0.000000
v -23.000000 0.000003 -100.000008
v -22.000000 0.000003 -100.000008
v -23.000000 1.250003 -100.000008
v -22.000000 1.250003 -100.000008
v -22.999992 1.250011 -0.000008
v -22.999992 0.000011 -0.000008
v -21.999992 0.000011 -0.000008
v -21.999992 1.250011 -0.000008
v -21.500000 0.000003 -100.000008
v -21.500000 1.250003 -100.000008
v -21.499992 0.000011 -0.000008
v -21.499992 1.250011 -0.000008
v -17.500000 0.000004 -100.000008
v -21.500000 1.250003 -100.000008
v -21.499992 1.250011 -0.000008
v -17.500000 0.500004 -100.000008
v -17.499992 0.000011 -0.000008
v -17.499992 0.500011 -0.000008
v -16.500000 0.000004 -100.000008
v -17.500000 0.500004 -100.000008
v -17.499992 0.500011 -0.000008
v -16.500000 0.500004 -100.000008
v -16.499992 0.000011 -0.000008
v -16.499992 0.500011 -0.000008
v -16.000000 0.000004 -100.000008
v -16.500000 0.500004 -100.000008
v -16.499992 0.500011 -0.000008
v -16.000000 2.000004 -100.000008
v -15.999992 0.000011 -0.000008
v -15.999992 2.000011 -0.000008
v -15.000000 0.000004 -100.000008
v -16.000000 2.000004 -100.000008
v -15.999992 2.000011 -0.000008
v -15.000000 2.000004 -100.000008
v -14.999992 0.000011 -0.000008
v -14.999992 2.000011 -0.000008
v -14.500000 0.000004 -100.000008
v -15.000000 2.000004 -100.000008
v -14.999992 2.000011 -0.000008
v -14.500000 1.250004 -100.000008
v -14.499992 0.000011 -0.000008
v -14.499992 1.250011 -0.000008
v -10.500000 0.000004 -100.000008
v -14.500000 1.250004 -100.000008
v -14.499992 1.250011 -0.000008
v -10.500000 1.250004 -100.000008
v -10.499992 0.000011 -0.000008
v -10.499992 1.250011 -0.000008
v -10.000000 0.000004 -100.000008
v -10.500000 1.250004 -100.000008
v -10.499992 1.250011 -0.000008
v -10.000000 2.000004 -100.000008
v -9.999992 0.000011 -0.000008
v -9.999992 2.000012 -0.000008
v -9.999992 0.000011 -0.000008
v -10.000000 0.000004 -100.000008
v 0.000000 0.000004 -100.000008
v 0.000008 0.000012 -0.000008
v 0.000000 2.000004 -100.000008
v 0.000000 0.000004 -100.000008
v -10.000000 2.000004 -100.000008
v -9.999992 2.000012 -0.000008
v 0.000008 2.000012 -0.000008
v 0.000000 2.000004 -100.000008
v 0.000008 0.000012 -0.000008
v 0.000008 2.000012 -0.000008
v -23.000000 0.000003 -100.000008
v -22.999992 0.000011 -0.000008
v -49.499992 0.000010 0.000000
v -49.500000 0.000002 -100.000000
v -76.999992 0.000009 0.000000
v -77.000000 0.000001 -100.000000
vt 0.8851 0.5000
vt 0.8351 0.5000
vt 0.8351 0.0000
vt 0.8851 0.0000
vt 0.7851 0.5000
vt 0.7851 0.0000
vt 0.8351 0.0000
vt 0.8351 0.5000
vt 0.9851 0.5000
vt 0.9851 0.0000
vt 0.9950 0.0000
vt 0.9950 0.5000
vt 0.9751 0.5000
vt 0.9751 0.4500
vt 0.9851 0.4500
vt 0.9851 0.5000
vt 0.0099 0.5000
vt 0.0099 1.0000
vt 0.0000 1.0000
vt 0.0000 0.5000
vt 0.9651 0.0500
vt 0.9651 0.0000
vt 0.9751 0.0000
vt 0.9751 0.0500
vt 0.6201 0.0000
vt 0.6201 0.5000
vt 0.6176 0.5000
vt 0.6176 0.0000
vt 0.9714 0.0525
vt 0.9651 0.0525
vt 0.0528 1.0000
vt 0.0528 0.5000
vt 0.0569 0.5000
vt 0.0569 1.0000
vt 0.9751 0.4475
vt 0.9814 0.4475
vt 0.5976 0.5000
vt 0.5976 0.0000
vt 0.9714 0.0725
vt 0.9651 0.0725
vt 0.9251 0.5000
vt 0.9251 0.0000
vt 0.9451 0.0000
vt 0.9451 0.5000
vt 0.9751 0.4275
vt 0.9814 0.4275
vt 0.5951 0.5000
vt 0.5951 0.0000
vt 0.9751 0.0750
vt 0.9651 0.0750
vt 0.0446 1.0000
vt 0.0446 0.5000
vt 0.0487 0.5000
vt 0.0487 1.0000
vt 0.9751 0.4250
vt 0.9851 0.4250
vt 0.5901 0.5000
vt 0.5901 0.0000
vt 0.9751 0.0800
vt 0.9651 0.0800
vt 0.0305 1.0000
vt 0.0305 0.5000
vt 0.0355 0.5000
vt 0.0355 1.0000
vt 0.9751 0.4200
vt 0.9851 0.4200
vt 0.5876 0.5000
vt 0.5876 0.0000
vt 0.9676 0.0825
vt 0.9651 0.0825
vt 0.0099 1.0000
vt 0.0099 0.5000
vt 0.0177 0.5000
vt 0.0177 1.0000
vt 0.9751 0.4175
vt 0.9776 0.4175
vt 0.5826 0.5000
vt 0.5826 0.0000
vt 0.9676 0.0875
vt 0.9651 0.0875
vt 0.0255 1.0000
vt 0.0255 0.5000
vt 0.0305 0.5000
vt 0.0305 1.0000
vt 0.9751 0.4125
vt 0.9776 0.4125
vt 0.5626 0.5000
vt 0.5626 0.0000
vt 0.9714 0.1075
vt 0.9651 0.1075
vt 0.9451 0.5000
vt 0.9451 0.0000
vt 0.9651 0.0000
vt 0.9651 0.5000
vt 0.9751 0.3925
vt 0.9814 0.3925
vt 0.5601 0.5000
vt 0.5601 0.0000
vt 0.9714 0.1100
vt 0.9651 0.1100
vt 0.0000 0.5000
vt 0.0000 0.0000
vt 0.0025 0.0000
vt 0.0025 0.5000
vt 0.9751 0.3900
vt 0.9814 0.3900
vt 0.5551 0.5000
vt 0.5551 0.0000
vt 0.9714 0.1150
vt 0.9651 0.1150
vt 0.0075 0.0000
vt 0.0075 0.5000
vt 0.9751 0.3850
vt 0.9814 0.3850
vt 0.2850 0.5000
vt 0.2850 0.0000
vt 0.2900 0.0000
vt 0.2900 0.5000
vt 0.9714 0.2525
vt 0.9651 0.2525
vt 0.9651 0.2475
vt 0.9714 0.2475
vt 0.1450 0.0000
vt 0.1450 0.5000
vt 0.1400 0.5000
vt 0.1400 0.0000
vt 0.9751 0.2475
vt 0.9814 0.2475
vt 0.9814 0.2525
vt 0.9751 0.2525
vt 0.6851 0.0000
vt 0.6851 0.5000
vt 0.6801 0.5000
vt 0.6801 0.0000
vt 0.9651 0.3850
vt 0.9714 0.3850
vt 0.9714 0.3900
vt 0.9651 0.3900
vt 0.2775 0.5000
vt 0.2775 0.0000
vt 0.2825 0.0000
vt 0.2825 0.5000
vt 0.9814 0.1150
vt 0.9751 0.1150
vt 0.9751 0.1100
vt 0.9814 0.1100
vt 0.6776 0.5000
vt 0.6776 0.0000
vt 0.9714 0.3925
vt 0.9651 0.3925
vt 0.2850 0.0000
vt 0.2850 0.5000
vt 0.9751 0.1075
vt 0.9814 0.1075
vt 0.6576 0.5000
vt 0.6576 0.0000
vt 0.9676 0.4125
vt 0.9651 0.4125
vt 0.9051 0.5000
vt 0.9051 0.0000
vt 0.9251 0.0000
vt 0.9251 0.5000
vt 0.9751 0.0875
vt 0.9776 0.0875
vt 0.6526 0.5000
vt 0.6526 0.0000
vt 0.9676 0.4175
vt 0.9651 0.4175
vt 0.0355 1.0000
vt 0.0355 0.5000
vt 0.0405 0.5000
vt 0.0405 1.0000
vt 0.9751 0.0825
vt 0.9776 0.0825
vt 0.6501 0.5000
vt 0.6501 0.0000
vt 0.9751 0.4200
vt 0.9651 0.4200
vt 0.0177 1.0000
vt 0.0177 0.5000
vt 0.0255 0.5000
vt 0.0255 1.0000
vt 0.9751 0.0800
vt 0.9851 0.0800
vt 0.6451 0.5000
vt 0.6451 0.0000
vt 0.9751 0.4250
vt 0.9651 0.4250
vt 0.9950 0.5000
vt 0.9950 0.0000
vt 1.0000 0.0000
vt 1.0000 0.5000
vt 0.9751 0.0750
vt 0.9851 0.0750
vt 0.6426 0.5000
vt 0.6426 0.0000
vt 0.9714 0.4275
vt 0.9651 0.4275
vt 0.0487 1.0000
vt 0.0487 0.5000
vt 0.0528 0.5000
vt 0.0528 1.0000
vt 0.9751 0.0725
vt 0.9814 0.0725
vt 0.6226 0.5000
vt 0.6226 0.0000
vt 0.9714 0.4475
vt 0.9651 0.4475
vt 0.8851 0.5000
vt 0.8851 0.0000
vt 0.9051 0.0000
vt 0.9051 0.5000
vt 0.9751 0.0525
vt 0.9814 0.0525
vt 0.6201 0.5000
vt 0.6201 0.0000
vt 0.9751 0.4500
vt 0.9651 0.4500
vt 0.0405 1.0000
vt 0.0405 0.5000
vt 0.0446 0.5000
vt 0.0446 1.0000
vt 0.9751 0.0500
vt 0.9851 0.0500
vt 0.7351 0.0000
vt 0.7351 0.5000
vt 0.6851 0.5000
vt 0.6851 0.0000
vt 0.9751 0.5000
vt 0.9651 0.5000
vt 0.7351 0.5000
vt 0.7351 0.0000
vt 0.7851 0.0000
vt 0.7851 0.5000
vt 0.9751 0.0000
vt 0.9851 0.0000
vt 0.4226 0.5000
vt 0.4226 0.0000
vt 0.5551 0.0000
vt 0.5551 0.5000
vt 0.4226 0.0000
vt 0.4226 0.5000
vn 0.0000 -1.0000 0.0000
vn -0.0000 1.0000 -0.0000
vn -1.0000 0.0000 0.0000
vn 0.0000 0.0000 1.0000
vn 1.0000 0.0000 -0.0000
vn 0.0000 0.0000 -1.0000
vn 0.8321 0.5547 -0.0000
vn -0.8321 0.5547 0.0000
vn 0.9487 0.3162 -0.0000
vn -0.1843 0.9829 -0.0000
vn 0.1843 0.9829 -0.0000
vn 0.0001 0.0000 -1.0000
vn -0.9487 0.3162 0.0000
vn -0.0001 0.0000 -1.0000
usemtl Material.002
s off
f 1/1/1 2/2/1 3/3/1
f 1/1/1 3/3/1 4/4/1
f 5/5/2 6/6/2 7/7/2
f 5/5/2 7/7/2 8/8/2
f 97/9/3 98/10/3 99/11/3
f 97/9/3 99/11/3 100/12/3
f 101/13/4 102/14/4 103/15/4
f 101/13/4 103/15/4 104/16/4
f 9/17/5 10/18/5 11/19/5
f 9/17/5 11/19/5 12/20/5
f 105/21/6 106/22/6 107/23/6
f 105/21/6 107/23/6 108/24/6
f 109/25/1 110/26/1 13/27/1
f 109/25/1 13/27/1 14/28/1
f 105/21/6 108/24/6 15/29/6
f 105/21/6 15/29/6 111/30/6
f 112/31/7 113/32/7 16/33/7
f 112/31/7 16/33/7 114/34/7
f 103/15/4 102/14/4 115/35/4
f 103/15/4 115/35/4 116/36/4
f 14/28/1 13/27/1 17/37/1
f 14/28/1 17/37/1 18/38/1
f 111/30/6 15/29/6 19/39/6
f 111/30/6 19/39/6 117/40/6
f 118/41/2 119/42/2 20/43/2
f 118/41/2 20/43/2 120/44/2
f 116/36/4 115/35/4 121/45/4
f 116/36/4 121/45/4 122/46/4
f 18/38/1 17/37/1 21/47/1
f 18/38/1 21/47/1 22/48/1
f 117/40/6 19/39/6 23/49/6
f 117/40/6 23/49/6 123/50/6
f 124/51/8 125/52/8 24/53/8
f 124/51/8 24/53/8 126/54/8
f 122/46/4 121/45/4 127/55/4
f 122/46/4 127/55/4 128/56/4
f 22/48/1 21/47/1 25/57/1
f 22/48/1 25/57/1 26/58/1
f 123/50/6 23/49/6 27/59/6
f 123/50/6 27/59/6 129/60/6
f 130/61/2 131/62/2 28/63/2
f 130/61/2 28/63/2 132/64/2
f 128/56/4 127/55/4 133/65/4
f 128/56/4 133/65/4 134/66/4
f 26/58/1 25/57/1 29/67/1
f 26/58/1 29/67/1 30/68/1
f 129/60/6 27/59/6 31/69/6
f 129/60/6 31/69/6 135/70/6
f 136/71/9 137/72/9 32/73/9
f 136/71/9 32/73/9 138/74/9
f 134/66/4 133/65/4 139/75/4
f 134/66/4 139/75/4 140/76/4
f 30/68/1 29/67/1 33/77/1
f 30/68/1 33/77/1 34/78/1
f 135/70/6 31/69/6 35/79/6
f 135/70/6 35/79/6 141/80/6
f 142/81/2 143/82/2 36/83/2
f 142/81/2 36/83/2 144/84/2
f 140/76/4 139/75/4 145/85/4
f 140/76/4 145/85/4 146/86/4
f 34/78/1 33/77/1 37/87/1
f 34/78/1 37/87/1 38/88/1
f 141/80/6 35/79/6 39/89/6
f 141/80/6 39/89/6 147/90/6
f 148/91/10 149/92/10 40/93/10
f 148/91/10 40/93/10 150/94/10
f 146/86/4 145/85/4 151/95/4
f 146/86/4 151/95/4 152/96/4
f 38/88/1 37/87/1 41/97/1
f 38/88/1 41/97/1 42/98/1
f 147/90/6 39/89/6 43/99/6
f 147/90/6 43/99/6 153/100/6
f 154/101/2 155/102/2 44/103/2
f 154/101/2 44/103/2 156/104/2
f 152/96/4 151/95/4 157/105/4
f 152/96/4 157/105/4 158/106/4
f 42/98/1 41/97/1 45/107/1
f 42/98/1 45/107/1 46/108/1
f 153/100/6 43/99/6 47/109/6
f 153/100/6 47/109/6 159/110/6
f 156/104/2 44/103/2 48/111/2
f 156/104/2 48/111/2 160/112/2
f 158/106/4 157/105/4 161/113/4
f 158/106/4 161/113/4 162/114/4
f 49/115/1 50/116/1 51/117/1
f 49/115/1 51/117/1 52/118/1
f 53/119/6 163/120/6 164/121/6
f 53/119/6 164/121/6 54/122/6
f 55/123/2 165/124/2 166/125/2
f 55/123/2 166/125/2 56/126/2
f 167/127/4 168/128/4 169/129/4
f 167/127/4 169/129/4 170/130/4
f 57/131/1 58/132/1 59/133/1
f 57/131/1 59/133/1 60/134/1
f 171/135/6 61/136/6 62/137/6
f 171/135/6 62/137/6 172/138/6
f 173/139/2 63/140/2 64/141/2
f 173/139/2 64/141/2 174/142/2
f 175/143/4 176/144/4 177/145/4
f 175/143/4 177/145/4 178/146/4
f 60/134/1 59/133/1 65/147/1
f 60/134/1 65/147/1 66/148/1
f 172/138/6 62/137/6 67/149/6
f 172/138/6 67/149/6 179/150/6
f 174/142/2 64/141/2 68/151/2
f 174/142/2 68/151/2 180/152/2
f 178/146/4 177/145/4 181/153/4
f 178/146/4 181/153/4 182/154/4
f 66/148/1 65/147/1 69/155/1
f 66/148/1 69/155/1 70/156/1
f 179/150/6 67/149/6 71/157/6
f 179/150/6 71/157/6 183/158/6
f 184/159/11 185/160/11 72/161/11
f 184/159/11 72/161/11 186/162/11
f 182/154/4 181/153/4 187/163/4
f 182/154/4 187/163/4 188/164/4
f 70/156/1 69/155/1 73/165/1
f 70/156/1 73/165/1 74/166/1
f 183/158/6 71/157/6 75/167/6
f 183/158/6 75/167/6 189/168/6
f 190/169/2 191/170/2 76/171/2
f 190/169/2 76/171/2 192/172/2
f 188/164/4 187/163/4 193/173/4
f 188/164/4 193/173/4 194/174/4
f 74/166/1 73/165/1 77/175/1
f 74/166/1 77/175/1 78/176/1
f 189/168/12 75/167/12 79/177/12
f 189/168/6 79/177/6 195/178/6
f 196/179/13 197/180/13 80/181/13
f 196/179/13 80/181/13 198/182/13
f 194/174/4 193/173/4 199/183/4
f 194/174/4 199/183/4 200/184/4
f 78/176/1 77/175/1 81/185/1
f 78/176/1 81/185/1 82/186/1
f 195/178/6 79/177/6 83/187/6
f 195/178/6 83/187/6 201/188/6
f 202/189/2 203/190/2 84/191/2
f 202/189/2 84/191/2 204/192/2
f 200/184/4 199/183/4 205/193/4
f 200/184/4 205/193/4 206/194/4
f 82/186/1 81/185/1 85/195/1
f 82/186/1 85/195/1 86/196/1
f 201/188/6 83/187/6 87/197/6
f 201/188/6 87/197/6 207/198/6
f 208/199/7 209/200/7 88/201/7
f 208/199/7 88/201/7 210/202/7
f 206/194/4 205/193/4 211/203/4
f 206/194/4 211/203/4 212/204/4
f 86/196/1 85/195/1 89/205/1
f 86/196/1 89/205/1 90/206/1
f 207/198/6 87/197/6 91/207/6
f 207/198/6 91/207/6 213/208/6
f 214/209/2 215/210/2 92/211/2
f 214/209/2 92/211/2 216/212/2
f 212/204/4 211/203/4 217/213/4
f 212/204/4 217/213/4 218/214/4
f 90/206/1 89/205/1 93/215/1
f 90/206/1 93/215/1 94/216/1
f 213/208/14 91/207/14 95/217/14
f 213/208/12 95/217/12 219/218/12
f 220/219/8 221/220/8 96/221/8
f 220/219/8 96/221/8 222/222/8
f 218/214/4 217/213/4 223/223/4
f 218/214/4 223/223/4 224/224/4
f 225/225/1 226/226/1 227/227/1
f 225/225/1 227/227/1 228/228/1
f 219/218/6 95/217/6 229/229/6
f 219/218/6 229/229/6 230/230/6
f 231/231/2 232/232/2 233/233/2
f 231/231/2 233/233/2 234/234/2
f 224/224/4 223/223/4 235/235/4
f 224/224/4 235/235/4 236/236/4
f 237/237/1 238/238/1 239/239/1
f 237/237/1 239/239/1 240/240/1
f 241/241/1 242/242/1 52/118/1
f 241/241/1 52/118/1 51/117/1
f 61/136/6 171/135/6 163/120/6
f 61/136/6 163/120/6 53/119/6
f 159/110/6 47/109/6 54/122/6
f 159/110/6 54/122/6 164/121/6
f 63/140/2 173/139/2 165/124/2
f 63/140/2 165/124/2 55/123/2
f 160/112/2 48/111/2 56/126/2
f 160/112/2 56/126/2 166/125/2
f 176/144/4 175/143/4 168/128/4
f 176/144/4 168/128/4 167/127/4
f 162/114/4 161/113/4 170/130/4
f 162/114/4 170/130/4 169/129/4
