# Blender v2.78 (sub 0) OBJ File: 'Arc_DOOR.blend'
# www.blender.org
mtllib ArcDoor.mtl
o Grim_Bear_Arc.001
v 1.292400 23.072031 -0.227431
v 1.292400 23.072031 0.597926
v 4.473700 21.415131 0.597926
v 6.486200 18.348791 0.636413
v 5.635380 -0.208650 0.636412
v 0.000000 -0.208650 -0.265919
v 6.486200 18.348791 -0.265918
v 4.473700 21.415131 -0.227431
v 5.635380 -0.208650 -0.265919
v 0.000000 -0.208650 0.636412
v 0.000000 23.072031 -0.227431
v 0.000000 23.072031 0.597926
vt 0.8633 0.0000
vt 1.0000 0.2421
vt 0.8633 0.2421
vt 0.7265 0.1276
vt 0.8633 0.9256
vt 0.7265 0.9256
vt 0.7265 1.0000
vt 0.5956 0.0000
vt 0.7207 0.0000
vt 0.8633 0.2421
vt 0.9883 0.2960
vt 0.8633 0.2960
vt 0.7324 0.0000
vt 0.8633 0.1276
vt 0.9883 0.4456
vt 0.8633 0.4456
vt 0.0000 0.7971
vt 0.2949 0.0000
vt 0.2949 1.0000
vt 0.5898 0.0000
vt 0.2949 0.2029
vt 0.3864 0.0712
vt 1.0000 0.0000
vt 0.5898 1.0000
vt 0.9883 0.2421
vt 0.8574 0.0000
vt 0.2361 1.0000
vt 0.0915 0.9288
vt 0.0387 0.0000
vt 0.5310 0.0000
vt 0.3336 1.0000
vn 0.0000 -1.0000 -0.0000
vn 0.9990 -0.0458 -0.0000
vn -1.0000 0.0000 0.0000
vn 0.0000 1.0000 0.0000
vn 0.8360 0.5487 0.0000
vn 0.4619 0.8869 0.0000
vn -0.0047 0.0017 -1.0000
vn 0.0061 0.0166 0.9998
vn 0.0000 0.0000 -1.0000
vn 0.0061 0.0166 -0.9998
vn 0.0000 0.0000 1.0000
vn -0.0047 0.0017 1.0000
usemtl Material__509
s off
f 9/1/1 10/2/1 6/3/1
f 7/4/2 5/5/2 9/6/2
f 6/7/3 12/8/3 11/9/3
f 11/10/4 2/11/4 1/12/4
f 8/13/5 4/14/5 7/4/5
f 1/12/6 3/15/6 8/16/6
f 7/17/7 6/18/7 11/19/7
f 12/20/8 4/21/8 3/22/8
f 9/1/1 5/23/1 10/2/1
f 7/4/2 4/14/2 5/5/2
f 6/7/3 10/24/3 12/8/3
f 11/10/4 12/25/4 2/11/4
f 8/13/5 3/26/5 4/14/5
f 1/12/6 2/11/6 3/15/6
f 11/19/9 1/27/9 8/28/9
f 8/28/10 7/17/10 11/19/10
f 9/29/9 6/18/9 7/17/9
f 3/22/11 2/30/11 12/20/11
f 12/20/12 10/24/12 4/21/12
f 5/31/11 4/21/11 10/24/11
