# Blender v2.78 (sub 0) OBJ File: 'CustomWall.blend'
# www.blender.org
mtllib WallLH.mtl
o TEMP
v 32.000000 0.000002 -75.323349
v 0.000000 13.276002 -73.138100
v 32.000000 14.488202 -75.323395
v 0.000000 16.000000 -69.794098
v 32.000000 17.212200 -69.794098
v -32.000000 0.000002 -75.588799
v -64.000000 13.704201 -72.691452
v -32.000000 15.166652 -75.588799
v 0.000000 0.000001 -73.138100
v 64.000000 13.364951 -72.558701
v -32.000000 17.890600 -69.794098
v 64.000000 16.000000 -69.794044
v 32.000000 112.000000 -75.711533
v 0.000000 124.026802 -75.275627
v 32.000000 124.026848 -74.311378
v -32.000000 112.000000 -75.040230
v -64.000000 124.003052 -73.715378
v -32.000000 124.026802 -73.640030
v 0.000000 112.000000 -76.675835
v 64.000000 112.000000 -73.246178
v 32.000000 128.403198 -63.999977
v 64.000000 128.403152 -69.891876
v 32.000000 128.404099 -69.869278
v 0.000000 128.403152 -63.999977
v -32.000000 128.403152 -63.999977
v -64.000000 128.403152 -69.891930
v -64.000000 128.403152 -63.999977
v -32.000000 128.433243 -69.201027
v -64.000000 112.000000 -69.794083
v 64.000000 16.000000 -69.794044
v -64.000000 16.000000 -69.794098
v 64.000000 124.003052 -73.715332
v 0.000000 128.368347 -70.830032
v -0.000050 13.275998 -54.861900
v -0.000050 -0.000001 -54.861900
v 32.000000 -0.000002 -52.676601
v -0.000050 15.999999 -58.205898
v 32.000000 14.488198 -52.676598
v -64.000000 13.704199 -55.308548
v -64.000107 -0.007072 -55.401127
v -32.000000 -0.000002 -52.411201
v -32.000000 15.166648 -52.411198
v 64.000000 -0.000001 -55.441250
v 64.000000 13.364949 -55.441246
v -64.000000 15.999999 -58.205898
v -32.000050 17.890600 -58.205898
v 31.999950 17.212200 -58.205898
v 0.000000 124.026802 -52.724331
v 0.000000 112.000000 -51.324131
v 32.000000 112.000000 -52.288383
v -64.000000 124.003052 -54.284580
v -64.000000 112.000000 -54.753731
v -32.000000 112.000000 -52.959732
v -32.000000 124.026802 -54.359932
v 63.999950 112.000000 -54.753731
v 63.999950 124.003052 -54.284630
v 32.000000 124.026848 -53.688580
v 63.999950 128.403152 -58.108028
v 64.000000 128.403152 -63.999977
v 0.000000 128.368347 -57.169930
v 32.000000 128.404099 -58.130680
v -64.000000 128.403152 -58.108028
v -32.000000 128.433243 -58.798927
v 63.999950 15.999999 -58.205898
v 63.999950 112.000000 -58.205883
v -64.000000 112.000000 -58.205883
v -64.000107 -0.007070 -72.784027
v 64.000000 0.000001 -72.558701
v -64.000000 16.000000 -69.794098
v -64.000000 112.000000 -73.246231
v 64.000000 112.000000 -69.794083
v 63.999950 15.999999 -58.205898
v -64.000000 15.999999 -58.205898
v -64.000107 -0.007071 -64.092575
v 64.000000 0.000000 -63.999977
v -64.000053 64.198044 -64.046280
v 64.000000 64.201576 -63.999977
v 64.000000 96.302368 -63.999977
v -64.000031 96.300598 -64.023132
v -64.000015 112.351875 -64.011551
v 64.000000 112.352760 -63.999977
v 64.000000 120.377960 -63.999977
v -0.000053 -0.003536 -64.046280
v -32.000080 -0.005303 -64.069427
v 31.999973 -0.001768 -64.023125
vt 0.6213 0.0060
vt 0.4151 0.0932
vt 0.6213 0.0932
vt 0.4151 0.1139
vt 0.6213 0.1139
vt 0.2085 0.0060
vt 0.0010 0.0932
vt 0.2085 0.0932
vt 0.4151 0.0060
vt 0.8284 0.0932
vt 0.2085 0.1139
vt 0.8284 0.1139
vt 0.2088 0.7421
vt 0.4158 0.8194
vt 0.2088 0.8194
vt 0.6221 0.7421
vt 0.8289 0.8193
vt 0.6221 0.8194
vt 0.4158 0.7421
vt 0.0011 0.7421
vt 0.2088 0.8963
vt 0.0011 0.8657
vt 0.2088 0.8657
vt 0.4158 0.8964
vt 0.6221 0.8964
vt 0.8289 0.8657
vt 0.8289 0.8964
vt 0.6221 0.8672
vt 0.0011 0.7380
vt 0.8282 0.1176
vt 0.0011 0.1176
vt 0.0011 0.8193
vt 0.4158 0.8639
vt 0.4151 0.0932
vt 0.4151 0.0060
vt 0.6213 0.0060
vt 0.4151 0.1139
vt 0.6213 0.0932
vt 0.0010 0.0932
vt 0.0010 0.0060
vt 0.2085 0.0060
vt 0.2085 0.0932
vt 0.8284 0.0060
vt 0.8284 0.0932
vt 0.0010 0.1139
vt 0.2085 0.1139
vt 0.6213 0.1139
vt 0.4158 0.8194
vt 0.4158 0.7421
vt 0.2088 0.7421
vt 0.8289 0.8193
vt 0.8289 0.7421
vt 0.6221 0.7421
vt 0.6221 0.8194
vt 0.0011 0.7421
vt 0.0011 0.8193
vt 0.2088 0.8194
vt 0.0011 0.8657
vt 0.0011 0.8963
vt 0.4158 0.8639
vt 0.2088 0.8657
vt 0.8289 0.8657
vt 0.6221 0.8672
vt 0.8282 0.1176
vt 0.8282 0.7380
vt 0.0011 0.7380
vt 0.0010 0.0060
vt 0.8284 0.0060
vt 0.0010 0.1139
vt 0.8289 0.7421
vt 0.8282 0.7380
vt 0.8284 0.1139
vt 0.0011 0.1176
vt 0.9860 0.0049
vt 0.9135 0.0049
vt 0.9853 0.0951
vt 0.9611 0.1103
vt 0.8411 0.0050
vt 0.8404 0.0952
vt 0.8645 0.1103
vt 0.8873 0.0872
vt 0.8873 -0.0020
vt 0.9444 -0.0020
vt 1.0016 -0.0020
vt 1.0016 0.0872
vt 0.9445 -0.0020
vt 0.9832 0.1047
vt 0.9057 0.1047
vt 0.9135 0.4275
vt 0.9444 0.4264
vt 0.9445 0.4264
vt 0.9057 0.7455
vt 0.9832 0.7455
vt 0.9444 0.6407
vt 0.9445 0.6407
vt 0.9617 0.7421
vt 0.8651 0.7422
vt 0.9135 0.6388
vt 0.9135 0.7445
vt 0.9444 0.7478
vt 0.9445 0.7478
vt 0.8255 0.8563
vt 0.9078 0.8565
vt 0.8251 0.9632
vt 0.9147 0.8542
vt 0.9970 0.8542
vt 0.9971 0.9611
vt 0.9313 0.9911
vt 0.9327 0.8438
vt 0.9776 0.9986
vt 0.9300 0.8435
vt 0.9313 0.9912
vt 0.8850 0.9986
vt 0.9946 0.8436
vt 0.8680 0.8435
vt 0.9946 0.9376
vt 0.8680 0.9375
vt 0.9103 0.9279
vt 0.9120 0.9256
vt 0.8604 1.0011
vt 0.9616 0.9990
vt 0.9092 0.9970
vt 0.9128 0.9993
vt 0.0000 0.0000
vt 0.0000 0.0000
vt 0.0000 0.0000
vt 0.0000 0.0000
vt 0.0000 0.0000
vn -0.0681 -0.0000 -0.9977
vn -0.0340 0.8965 -0.4417
vn -0.0902 0.0000 -0.9959
vn 0.0764 0.0000 -0.9971
vn 0.0861 -0.0000 -0.9963
vn -0.0796 0.9021 -0.4241
vn 0.0458 0.7745 -0.6309
vn 0.0274 0.7236 -0.6897
vn 0.0299 0.1156 -0.9928
vn 0.0023 0.1156 -0.9933
vn -0.0507 0.1155 -0.9920
vn 0.0763 0.1153 -0.9904
vn 0.0000 1.0000 0.0002
vn 0.0000 1.0000 0.0000
vn 0.0000 1.0000 0.0058
vn 0.0000 0.0000 -1.0000
vn 0.0136 0.7122 -0.7018
vn 0.0210 0.7153 -0.6985
vn -0.0360 0.7092 -0.7040
vn 0.0013 0.6559 -0.7548
vn -0.0681 0.0000 0.9977
vn -0.0723 0.7733 0.6299
vn -0.0930 -0.0067 0.9956
vn 0.0764 -0.0000 0.9971
vn 0.0861 -0.0000 0.9963
vn -0.0463 0.7829 0.6204
vn 0.0857 0.9017 0.4239
vn 0.0695 0.8949 0.4409
vn 0.0299 0.1156 0.9928
vn -0.0559 -0.0390 0.9977
vn -0.0507 0.1155 0.9920
vn 0.0186 -0.0390 0.9991
vn -0.0010 1.0000 0.0051
vn -0.0011 1.0000 -0.0058
vn 0.0018 1.0000 0.0051
vn 0.0000 -0.0000 1.0000
vn -0.0005 0.6559 0.7548
vn 0.0203 0.7121 0.7017
vn -0.0341 0.7150 0.6983
vn 0.0145 0.7096 0.7044
vn -0.0723 0.7733 -0.6299
vn -0.0873 0.0067 -0.9962
vn -0.0463 0.7829 -0.6204
vn 0.0857 0.9017 -0.4239
vn 0.0695 0.8949 -0.4409
vn -0.0559 -0.0390 -0.9977
vn 0.0186 -0.0390 -0.9991
vn -0.0010 1.0000 -0.0051
vn -0.0011 1.0000 0.0058
vn 0.0018 1.0000 -0.0051
vn -0.0005 0.6559 -0.7548
vn 0.0203 0.7121 -0.7017
vn -0.0341 0.7150 -0.6983
vn 0.0145 0.7096 -0.7044
vn -0.0340 0.8965 0.4417
vn -0.0902 -0.0000 0.9959
vn -0.0796 0.9021 0.4241
vn 0.0458 0.7745 0.6309
vn 0.0274 0.7236 0.6897
vn 0.0023 0.1156 0.9933
vn 0.0763 0.1153 0.9904
vn 0.0000 1.0000 -0.0002
vn 0.0000 1.0000 -0.0058
vn 0.0136 0.7122 0.7018
vn 0.0210 0.7153 0.6985
vn -0.0360 0.7092 0.7040
vn 0.0013 0.6559 0.7548
vn 0.0000 -1.0000 0.0000
vn -1.0000 0.0000 0.0000
vn 1.0000 0.0000 0.0000
vn 0.0001 -1.0000 -0.0000
vn 0.0000 -1.0000 -0.0002
vn 0.0000 -1.0000 0.0002
vn 0.0002 -1.0000 -0.0005
vn 0.0002 -1.0000 0.0005
vn 0.0001 -1.0000 0.0005
vn 0.0001 -1.0000 -0.0005
vn 0.0001 -1.0000 0.0002
vn 0.0001 -1.0000 -0.0002
vn -0.0000 -1.0000 -0.0004
vn -0.0000 -1.0000 0.0004
usemtl Material__506
s off
f 1/1/1 2/2/1 3/3/1
f 3/3/2 4/4/2 5/5/2
f 6/6/3 7/7/3 8/8/3
f 9/9/4 8/8/4 2/2/4
f 10/10/5 1/1/5 3/3/5
f 8/8/6 7/7/6 11/11/6
f 2/2/7 11/11/7 4/4/7
f 5/5/8 12/12/8 10/10/8
f 13/13/9 14/14/9 15/15/9
f 16/16/10 17/17/10 18/18/10
f 19/19/11 18/18/11 14/14/11
f 15/15/12 20/20/12 13/13/12
f 21/21/13 22/22/13 23/23/13
f 21/21/13 23/23/13 24/24/13
f 25/25/14 26/26/14 27/27/14
f 24/24/15 28/28/15 25/25/15
f 29/29/16 30/30/16 31/31/16
f 15/15/17 23/23/17 32/32/17
f 14/14/18 33/33/18 15/15/18
f 18/18/19 28/28/19 14/14/19
f 17/17/20 26/26/20 18/18/20
f 34/34/21 35/35/21 36/36/21
f 37/37/22 34/34/22 38/38/22
f 39/39/23 40/40/23 41/41/23
f 42/42/24 41/41/24 35/35/24
f 43/43/25 44/44/25 36/36/25
f 45/45/26 39/39/26 46/46/26
f 46/46/27 42/42/27 34/34/27
f 47/47/28 38/38/28 44/44/28
f 48/48/29 49/49/29 50/50/29
f 51/51/30 52/52/30 53/53/30
f 54/54/31 53/53/31 49/49/31
f 55/55/32 56/56/32 57/57/32
f 58/58/14 59/59/14 21/21/14
f 60/60/33 61/61/33 24/24/33
f 62/62/34 63/63/34 25/25/34
f 63/63/35 60/60/35 24/24/35
f 64/64/36 65/65/36 66/66/36
f 58/58/37 61/61/37 56/56/37
f 61/61/38 60/60/38 57/57/38
f 60/60/39 63/63/39 48/48/39
f 63/63/40 62/62/40 54/54/40
f 1/1/1 9/9/1 2/2/1
f 3/3/41 2/2/41 4/4/41
f 6/6/42 67/67/42 7/7/42
f 9/9/4 6/6/4 8/8/4
f 68/68/5 1/1/5 10/10/5
f 7/7/43 69/69/43 11/11/43
f 2/2/44 8/8/44 11/11/44
f 10/10/45 3/3/45 5/5/45
f 13/13/9 19/19/9 14/14/9
f 16/16/46 70/70/46 17/17/46
f 19/19/11 16/16/11 18/18/11
f 15/15/47 32/32/47 20/20/47
f 21/21/14 59/59/14 22/22/14
f 23/23/48 33/33/48 24/24/48
f 25/25/49 28/28/49 26/26/49
f 24/24/50 33/33/50 28/28/50
f 29/29/16 71/71/16 30/30/16
f 23/23/51 22/22/51 32/32/51
f 33/33/52 23/23/52 15/15/52
f 28/28/53 33/33/53 14/14/53
f 26/26/54 28/28/54 18/18/54
f 36/36/21 38/38/21 34/34/21
f 38/38/55 47/47/55 37/37/55
f 41/41/56 42/42/56 39/39/56
f 35/35/24 34/34/24 42/42/24
f 44/44/25 38/38/25 36/36/25
f 39/39/57 42/42/57 46/46/57
f 34/34/58 37/37/58 46/46/58
f 44/44/59 72/72/59 47/47/59
f 50/50/29 57/57/29 48/48/29
f 53/53/60 54/54/60 51/51/60
f 49/49/31 48/48/31 54/54/31
f 57/57/61 50/50/61 55/55/61
f 21/21/62 61/61/62 58/58/62
f 61/61/62 21/21/62 24/24/62
f 25/25/14 27/27/14 62/62/14
f 24/24/63 25/25/63 63/63/63
f 66/66/36 73/73/36 64/64/36
f 61/61/64 57/57/64 56/56/64
f 60/60/65 48/48/65 57/57/65
f 63/63/66 54/54/66 48/48/66
f 62/62/67 51/51/67 54/54/67
f 50/50/68 49/49/68 53/53/68
f 53/53/68 52/52/68 66/66/68
f 66/66/68 65/65/68 55/55/68
f 55/55/68 50/50/68 53/53/68
f 53/53/68 66/66/68 55/55/68
f 29/29/68 70/70/68 16/16/68
f 16/16/68 19/19/68 13/13/68
f 13/13/68 20/20/68 71/71/68
f 71/71/68 29/29/68 16/16/68
f 16/16/68 13/13/68 71/71/68
f 67/74/69 74/75/69 7/76/69
f 69/77/69 7/76/69 74/75/69
f 40/78/69 39/79/69 74/75/69
f 39/79/69 73/80/69 74/75/69
f 44/81/70 43/82/70 75/83/70
f 68/84/70 10/85/70 75/86/70
f 10/85/70 30/87/70 75/86/70
f 72/88/70 44/81/70 75/83/70
f 74/75/69 76/89/69 69/77/69
f 74/75/69 73/80/69 76/89/69
f 75/83/70 77/90/70 72/88/70
f 75/86/70 30/87/70 77/91/70
f 77/90/70 65/92/70 72/88/70
f 30/87/70 71/93/70 77/91/70
f 77/90/70 78/94/70 65/92/70
f 77/91/70 71/93/70 78/95/70
f 76/89/69 29/96/69 69/77/69
f 73/80/69 66/97/69 76/89/69
f 76/89/69 79/98/69 29/96/69
f 76/89/69 66/97/69 79/98/69
f 79/98/69 80/99/69 29/96/69
f 79/98/69 66/97/69 80/99/69
f 78/94/70 81/100/70 65/92/70
f 78/95/70 71/93/70 81/101/70
f 55/102/70 81/103/70 56/104/70
f 81/105/70 20/106/70 32/107/70
f 70/108/69 80/109/69 17/110/69
f 80/111/69 52/112/69 51/113/69
f 80/109/69 27/114/69 17/110/69
f 80/111/69 51/113/69 27/115/69
f 26/116/69 17/110/69 27/114/69
f 51/113/69 62/117/69 27/115/69
f 81/103/70 82/118/70 56/104/70
f 81/105/70 32/107/70 82/119/70
f 56/104/70 82/118/70 58/120/70
f 32/107/70 22/121/70 82/119/70
f 59/122/70 82/119/70 22/121/70
f 59/123/70 58/120/70 82/118/70
f 75/124/71 43/43/71 85/125/71
f 75/124/71 85/125/71 68/68/71
f 68/68/72 85/125/72 1/1/72
f 43/43/73 36/36/73 85/125/73
f 74/126/71 84/127/71 40/40/71
f 67/67/71 84/127/71 74/126/71
f 67/67/74 6/6/74 84/127/74
f 41/41/75 40/40/75 84/127/75
f 84/127/76 83/128/76 41/41/76
f 84/127/77 6/6/77 83/128/77
f 85/125/78 36/36/78 83/128/78
f 85/125/79 83/128/79 1/1/79
f 1/1/80 83/128/80 9/9/80
f 36/36/81 35/35/81 83/128/81
f 41/41/81 83/128/81 35/35/81
f 6/6/80 9/9/80 83/128/80
