# Blender v2.78 (sub 0) OBJ File: ''
# www.blender.org
mtllib WallZ.mtl
o TEMP.002
v -5.658760 -15.971974 -15.623542
v -4.566135 -12.652979 0.376461
v -5.658783 -12.349925 -15.623540
v -2.894135 -11.971979 0.376461
v -2.894135 -11.668926 -15.623539
v -5.791485 -15.971984 16.376459
v -4.342808 -12.545938 32.376461
v -5.791485 -12.180320 16.376461
v -4.566135 -15.971979 0.376459
v -4.276436 -12.630733 -31.623539
v -2.894135 -11.499332 16.376461
v -2.894112 -11.971972 -31.623539
v -5.852852 12.028025 -15.623528
v -5.634899 15.034721 0.376474
v -5.152775 15.034735 -15.623527
v -5.517200 12.028017 16.376472
v -4.854774 15.028776 32.376472
v -4.817101 15.034719 16.376474
v -6.335003 12.028021 0.376473
v -4.620178 12.028028 -31.623528
v 0.002924 16.128826 -15.623527
v -2.943027 16.128815 -31.623524
v -2.931725 16.129051 -15.623527
v 0.002926 16.128807 0.376474
v 0.002926 16.128803 16.376476
v -2.943050 16.128803 32.376472
v 0.002926 16.128803 32.376472
v -2.597599 16.136326 16.376476
v -2.894127 12.028013 32.376472
v -2.894112 -11.971972 -31.623539
v -2.894135 -11.971987 32.376461
v -4.854752 15.028791 -31.623526
v -3.412102 16.120110 0.376474
v 4.571964 -12.652980 0.376486
v 4.571964 -15.971979 0.376484
v 5.664614 -15.971974 -15.623542
v 2.899965 -11.971979 0.376486
v 5.664616 -12.349926 -15.623540
v 4.348642 -12.545938 32.376461
v 4.302353 -15.973754 32.376514
v 5.797316 -15.971984 16.376459
v 5.797318 -12.180321 16.376461
v 4.282288 -15.971972 -31.623541
v 4.282290 -12.630733 -31.623539
v 2.899967 -11.971987 32.376461
v 2.899967 -11.499332 16.376486
v 2.899965 -11.668926 -15.623514
v 5.640749 15.034721 0.376474
v 6.340849 12.028021 0.376472
v 5.858723 12.028025 -15.623528
v 4.860626 15.028776 32.376472
v 4.626049 12.028013 32.376472
v 5.523048 12.028017 16.376472
v 4.822950 15.034719 16.376474
v 4.626047 12.028028 -31.623503
v 4.860598 15.028791 -31.623501
v 5.158625 15.034735 -15.623527
v 2.948898 16.128815 -31.623499
v 0.002924 16.128815 -31.623524
v 3.417950 16.120110 0.376474
v 2.937574 16.129051 -15.623527
v 2.948902 16.128803 32.376472
v 2.603451 16.136326 16.376476
v 2.899963 -11.971972 -31.623514
v 2.899971 12.028028 -31.623503
v 2.899975 12.028013 32.376472
v -4.389099 -15.973754 32.376514
v -4.276436 -15.971972 -31.623541
v -2.894135 -11.971987 32.376461
v -4.620201 12.028013 32.376472
v -2.894127 12.028028 -31.623528
v 2.899963 -11.971972 -31.623514
v 2.899967 -11.971987 32.376461
v -0.043373 -15.973754 32.376514
v 0.002926 -15.971972 -31.623541
v -0.020222 0.077524 32.376495
v 0.002924 0.078423 -31.623533
v 0.002924 8.103621 -31.623529
v -0.008648 8.103163 32.376488
v -0.002861 12.115980 32.376480
v 0.002924 12.116220 -31.623528
v 0.002924 14.122519 -31.623526
v -0.008648 -15.972417 -15.623528
v -0.031799 -15.973310 16.376499
v -0.020226 -15.972862 0.376485
vt 0.6213 0.0060
vt 0.4151 0.0932
vt 0.6213 0.0932
vt 0.4151 0.1139
vt 0.6213 0.1139
vt 0.2085 0.0060
vt 0.0010 0.0932
vt 0.2085 0.0932
vt 0.4151 0.0060
vt 0.8284 0.0932
vt 0.2085 0.1139
vt 0.8284 0.1139
vt 0.2088 0.7421
vt 0.4158 0.8194
vt 0.2088 0.8194
vt 0.6221 0.7421
vt 0.8289 0.8193
vt 0.6221 0.8194
vt 0.4158 0.7421
vt 0.0011 0.7421
vt 0.2088 0.8963
vt 0.0011 0.8657
vt 0.2088 0.8657
vt 0.4158 0.8964
vt 0.6221 0.8964
vt 0.8289 0.8657
vt 0.8289 0.8964
vt 0.6221 0.8672
vt 0.0011 0.7380
vt 0.8282 0.1176
vt 0.0011 0.1176
vt 0.0011 0.8193
vt 0.4158 0.8639
vt 0.4151 0.0932
vt 0.4151 0.0060
vt 0.6213 0.0060
vt 0.4151 0.1139
vt 0.6213 0.0932
vt 0.0010 0.0932
vt 0.0010 0.0060
vt 0.2085 0.0060
vt 0.2085 0.0932
vt 0.8284 0.0060
vt 0.8284 0.0932
vt 0.0010 0.1139
vt 0.2085 0.1139
vt 0.6213 0.1139
vt 0.4158 0.8194
vt 0.4158 0.7421
vt 0.2088 0.7421
vt 0.8289 0.8193
vt 0.8289 0.7421
vt 0.6221 0.7421
vt 0.6221 0.8194
vt 0.0011 0.7421
vt 0.0011 0.8193
vt 0.2088 0.8194
vt 0.0011 0.8657
vt 0.0011 0.8963
vt 0.4158 0.8639
vt 0.2088 0.8657
vt 0.8289 0.8657
vt 0.6221 0.8672
vt 0.8282 0.1176
vt 0.8282 0.7380
vt 0.0011 0.7380
vt 0.0010 0.0060
vt 0.8284 0.0060
vt 0.0010 0.1139
vt 0.8289 0.7421
vt 0.8282 0.7380
vt 0.8284 0.1139
vt 0.0011 0.1176
vt 0.9860 0.0049
vt 0.9135 0.0049
vt 0.9853 0.0951
vt 0.9611 0.1103
vt 0.8411 0.0050
vt 0.8404 0.0952
vt 0.8645 0.1103
vt 0.8873 0.0872
vt 0.8873 -0.0020
vt 0.9444 -0.0020
vt 1.0016 -0.0020
vt 1.0016 0.0872
vt 0.9445 -0.0020
vt 0.9832 0.1047
vt 0.9057 0.1047
vt 0.9135 0.4275
vt 0.9444 0.4264
vt 0.9445 0.4264
vt 0.9057 0.7455
vt 0.9832 0.7455
vt 0.9444 0.6407
vt 0.9445 0.6407
vt 0.9617 0.7421
vt 0.8651 0.7422
vt 0.9135 0.6388
vt 0.9135 0.7445
vt 0.9444 0.7478
vt 0.9445 0.7478
vt 0.8255 0.8563
vt 0.9078 0.8565
vt 0.8251 0.9632
vt 0.9147 0.8542
vt 0.9970 0.8542
vt 0.9971 0.9611
vt 0.9313 0.9911
vt 0.9327 0.8438
vt 0.9776 0.9986
vt 0.9300 0.8435
vt 0.9313 0.9912
vt 0.8850 0.9986
vt 0.9946 0.8436
vt 0.8680 0.8435
vt 0.9946 0.9376
vt 0.8680 0.9375
vt 0.9103 0.9279
vt 0.9120 0.9256
vt 0.8604 1.0011
vt 0.9616 0.9990
vt 0.9092 0.9970
vt 0.9128 0.9993
vt 0.0000 0.0000
vt 0.0000 0.0000
vt 0.0000 0.0000
vt 0.0000 0.0000
vt 0.0000 0.0000
vn -0.9977 -0.0000 0.0681
vn -0.2391 0.9708 0.0184
vn -0.9961 0.0055 0.0883
vn -0.9960 0.0078 0.0893
vn -0.9959 0.0000 0.0902
vn -0.9971 0.0000 -0.0764
vn -0.9963 -0.0000 -0.0861
vn -0.2286 0.9726 0.0429
vn -0.3771 0.9258 -0.0273
vn -0.4301 0.9026 -0.0171
vn -0.9735 0.2267 -0.0293
vn -0.9739 0.2268 -0.0022
vn -0.9727 0.2265 0.0497
vn -0.9712 0.2261 -0.0748
vn 0.0000 1.0000 -0.0000
vn -0.0029 1.0000 0.0006
vn 0.0000 1.0000 0.0046
vn 0.0000 1.0000 -0.0045
vn 0.0040 1.0000 0.0007
vn -0.0033 1.0000 -0.0011
vn -1.0000 0.0000 -0.0000
vn -0.4391 0.8983 -0.0138
vn -0.4419 0.8970 -0.0074
vn -0.4420 0.8970 -0.0086
vn -0.4387 0.8985 -0.0132
vn -0.4415 0.8972 -0.0127
vn -0.4445 0.8955 0.0227
vn -0.4393 0.8981 0.0214
vn -0.4438 0.8958 0.0228
vn -0.4987 0.8668 -0.0009
vn 0.9977 0.0000 0.0681
vn 0.3769 0.9253 0.0433
vn 0.9958 -0.0077 0.0910
vn 0.9956 -0.0134 0.0930
vn 0.9957 -0.0056 0.0921
vn 0.9971 -0.0000 -0.0764
vn 0.9963 -0.0000 -0.0861
vn 0.3682 0.9293 0.0275
vn 0.2286 0.9724 -0.0462
vn 0.2390 0.9703 -0.0377
vn 0.9735 0.2267 -0.0293
vn 0.9954 -0.0778 0.0558
vn 0.9727 0.2265 0.0497
vn 0.9968 -0.0779 -0.0185
vn 0.0025 1.0000 -0.0002
vn 0.0028 1.0000 0.0006
vn -0.0040 1.0000 0.0007
vn 0.0033 1.0000 -0.0011
vn 1.0000 -0.0000 -0.0000
vn 0.4987 0.8668 0.0003
vn 0.4420 0.8970 -0.0074
vn 0.4415 0.8972 -0.0127
vn 0.4391 0.8983 -0.0138
vn 0.4387 0.8984 0.0214
vn 0.4394 0.8980 0.0214
vn 0.4438 0.8958 0.0228
vn 0.4446 0.8957 -0.0092
vn -0.3769 0.9253 0.0433
vn -0.9961 0.0135 0.0873
vn -0.3682 0.9293 0.0275
vn -0.2286 0.9724 -0.0462
vn -0.2390 0.9703 -0.0377
vn -0.9954 -0.0778 0.0558
vn -0.9968 -0.0779 -0.0185
vn -0.0025 1.0000 -0.0002
vn -0.4987 0.8668 0.0003
vn -0.4387 0.8984 0.0214
vn -0.4446 0.8957 -0.0092
vn 0.2391 0.9708 0.0184
vn 0.9959 -0.0000 0.0902
vn 0.2286 0.9726 0.0429
vn 0.3771 0.9258 -0.0273
vn 0.4301 0.9026 -0.0171
vn 0.9739 0.2268 -0.0022
vn 0.9712 0.2261 -0.0748
vn 0.4420 0.8970 -0.0086
vn 0.4387 0.8985 -0.0132
vn 0.4445 0.8955 0.0227
vn 0.4987 0.8668 -0.0009
vn -0.0000 -1.0000 -0.0000
vn 0.0000 0.0000 1.0000
vn -0.0000 0.0000 -1.0000
vn -0.0001 -1.0000 -0.0000
vn 0.0001 -1.0000 -0.0000
vn -0.0000 -1.0000 -0.0001
vn -0.0002 -1.0000 -0.0001
vn 0.0002 -1.0000 -0.0001
vn -0.0002 -1.0000 -0.0000
vn 0.0002 -1.0000 -0.0000
usemtl Material__506.002
s 1
f 1/1/1 2/2/1 3/3/1
f 3/3/2 4/4/2 5/5/2
f 6/6/3 7/7/4 8/8/5
f 9/9/6 8/8/6 2/2/6
f 10/10/7 1/1/7 3/3/7
f 8/8/8 7/7/8 11/11/8
f 2/2/9 11/11/9 4/4/9
f 5/5/10 12/12/10 10/10/10
f 13/13/11 14/14/11 15/15/11
f 16/16/12 17/17/12 18/18/12
f 19/19/13 18/18/13 14/14/13
f 15/15/14 20/20/14 13/13/14
f 21/21/15 22/22/15 23/23/16
f 21/21/15 23/23/16 24/24/17
f 25/25/18 26/26/19 27/27/15
f 24/24/17 28/28/20 25/25/18
f 29/29/21 30/30/21 31/31/21
f 15/15/22 23/23/23 32/32/24
f 14/14/25 33/33/26 15/15/22
f 18/18/27 28/28/28 14/14/29
f 17/17/30 26/26/30 18/18/30
f 34/34/31 35/35/31 36/36/31
f 37/37/32 34/34/32 38/38/32
f 39/39/33 40/40/34 41/41/35
f 42/42/36 41/41/36 35/35/36
f 43/43/37 44/44/37 36/36/37
f 45/45/38 39/39/38 46/46/38
f 46/46/39 42/42/39 34/34/39
f 47/47/40 38/38/40 44/44/40
f 48/48/41 49/49/41 50/50/41
f 51/51/42 52/52/42 53/53/42
f 54/54/43 53/53/43 49/49/43
f 55/55/44 56/56/44 57/57/44
f 58/58/15 59/59/15 21/21/15
f 60/60/45 61/61/46 24/24/17
f 62/62/47 63/63/48 25/25/18
f 63/63/48 60/60/45 24/24/17
f 64/64/49 65/65/49 66/66/49
f 58/58/50 61/61/50 56/56/50
f 61/61/51 60/60/52 57/57/53
f 60/60/54 63/63/55 48/48/56
f 63/63/57 62/62/57 54/54/57
f 1/1/1 9/9/1 2/2/1
f 3/3/58 2/2/58 4/4/58
f 6/6/3 67/67/59 7/7/4
f 9/9/6 6/6/6 8/8/6
f 68/68/7 1/1/7 10/10/7
f 7/7/60 69/69/60 11/11/60
f 2/2/61 8/8/61 11/11/61
f 10/10/62 3/3/62 5/5/62
f 13/13/11 19/19/11 14/14/11
f 16/16/63 70/70/63 17/17/63
f 19/19/13 16/16/13 18/18/13
f 15/15/64 32/32/64 20/20/64
f 21/21/15 59/59/15 22/22/15
f 23/23/16 33/33/65 24/24/17
f 25/25/18 28/28/20 26/26/19
f 24/24/17 33/33/65 28/28/20
f 29/29/21 71/71/21 30/30/21
f 23/23/66 22/22/66 32/32/66
f 33/33/26 23/23/23 15/15/22
f 28/28/28 33/33/67 14/14/29
f 26/26/68 28/28/68 18/18/68
f 36/36/31 38/38/31 34/34/31
f 38/38/69 47/47/69 37/37/69
f 41/41/35 42/42/70 39/39/33
f 35/35/36 34/34/36 42/42/36
f 44/44/37 38/38/37 36/36/37
f 39/39/71 42/42/71 46/46/71
f 34/34/72 37/37/72 46/46/72
f 44/44/73 72/72/73 47/47/73
f 50/50/41 57/57/41 48/48/41
f 53/53/74 54/54/74 51/51/74
f 49/49/43 48/48/43 54/54/43
f 57/57/75 50/50/75 55/55/75
f 21/21/15 61/61/46 58/58/15
f 61/61/46 21/21/15 24/24/17
f 25/25/18 27/27/15 62/62/47
f 24/24/17 25/25/18 63/63/48
f 66/66/49 73/73/49 64/64/49
f 61/61/51 57/57/53 56/56/76
f 60/60/52 48/48/77 57/57/53
f 63/63/55 54/54/78 48/48/56
f 62/62/79 51/51/79 54/54/79
f 50/50/80 49/49/80 53/53/80
f 53/53/80 52/52/80 66/66/80
f 66/66/80 65/65/80 55/55/80
f 55/55/80 50/50/80 53/53/80
f 53/53/80 66/66/80 55/55/80
f 29/29/80 70/70/80 16/16/80
f 16/16/80 19/19/80 13/13/80
f 13/13/80 20/20/80 71/71/80
f 71/71/80 29/29/80 16/16/80
f 16/16/80 13/13/80 71/71/80
f 67/74/81 74/75/81 7/76/81
f 69/77/81 7/76/81 74/75/81
f 40/78/81 39/79/81 74/75/81
f 39/79/81 73/80/81 74/75/81
f 44/81/82 43/82/82 75/83/82
f 68/84/82 10/85/82 75/86/82
f 10/85/82 30/87/82 75/86/82
f 72/88/82 44/81/82 75/83/82
f 74/75/81 76/89/81 69/77/81
f 74/75/81 73/80/81 76/89/81
f 75/83/82 77/90/82 72/88/82
f 75/86/82 30/87/82 77/91/82
f 77/90/82 65/92/82 72/88/82
f 30/87/82 71/93/82 77/91/82
f 77/90/82 78/94/82 65/92/82
f 77/91/82 71/93/82 78/95/82
f 76/89/81 29/96/81 69/77/81
f 73/80/81 66/97/81 76/89/81
f 76/89/81 79/98/81 29/96/81
f 76/89/81 66/97/81 79/98/81
f 79/98/81 80/99/81 29/96/81
f 79/98/81 66/97/81 80/99/81
f 78/94/82 81/100/82 65/92/82
f 78/95/82 71/93/82 81/101/82
f 55/102/82 81/103/82 56/104/82
f 81/105/82 20/106/82 32/107/82
f 70/108/81 80/109/81 17/110/81
f 80/111/81 52/112/81 51/113/81
f 80/109/81 27/114/81 17/110/81
f 80/111/81 51/113/81 27/115/81
f 26/116/81 17/110/81 27/114/81
f 51/113/81 62/117/81 27/115/81
f 81/103/82 82/118/82 56/104/82
f 81/105/82 32/107/82 82/119/82
f 56/104/82 82/118/82 58/120/82
f 32/107/82 22/121/82 82/119/82
f 59/122/82 82/119/82 22/121/82
f 59/123/82 58/120/82 82/118/82
f 75/124/80 43/43/80 83/125/80
f 75/124/80 83/125/80 68/68/80
f 68/68/80 83/125/80 1/1/83
f 43/43/80 36/36/84 83/125/80
f 74/126/80 84/127/85 40/40/80
f 67/67/80 84/127/85 74/126/80
f 67/67/80 6/6/86 84/127/85
f 41/41/87 40/40/80 84/127/85
f 84/127/85 85/128/80 41/41/87
f 84/127/85 6/6/86 85/128/80
f 83/125/80 36/36/84 85/128/80
f 83/125/80 85/128/80 1/1/83
f 1/1/83 85/128/80 9/9/88
f 36/36/84 35/35/89 85/128/80
f 41/41/87 85/128/80 35/35/89
f 6/6/86 9/9/88 85/128/80
