# Blender v2.78 (sub 0) OBJ File: ''
# www.blender.org
mtllib z-axis.mtl
o Cube.003
v 1.000000 -0.001000 0.001000
v -1.000000 -0.001000 -0.001000
v 1.000000 -0.001000 -0.001000
v -1.000000 0.001000 -0.001000
v 0.999999 0.001000 0.001000
v 1.000000 0.001000 -0.001000
v -1.000000 -0.001000 0.001000
v -1.000000 0.001000 0.001000
vt 0.4000 0.0000
vt 0.2000 1.0000
vt 0.2000 0.0000
vt 0.2000 1.0000
vt 0.0000 0.0000
vt 0.2000 0.0000
vt 0.8000 0.0010
vt 1.0000 0.0000
vt 1.0000 0.0010
vt 0.8000 0.0000
vt 0.6001 1.0000
vt 0.6000 0.0000
vt 0.8000 0.0020
vt 1.0000 0.0010
vt 1.0000 0.0020
vt 0.6000 0.0000
vt 0.4000 1.0000
vt 0.4000 0.0000
vt 0.4000 1.0000
vt 0.0000 1.0000
vt 0.8000 1.0000
vt 0.8000 0.0010
vt 0.6000 1.0000
vn 0.0000 -1.0000 -0.0000
vn 0.0000 1.0000 0.0000
vn 1.0000 -0.0002 0.0004
vn 1.0000 0.0000 0.0000
vn 0.0000 -0.0000 1.0000
vn -1.0000 0.0000 0.0000
vn 0.0000 0.0000 -1.0000
vn 1.0000 0.0005 0.0005
usemtl Material.005
s 1
f 1/1/1 2/2/1 3/3/1
f 4/4/2 5/5/2 6/6/2
f 6/7/3 1/8/3 3/9/4
f 5/10/5 7/11/5 1/12/5
f 7/13/6 4/14/6 2/15/6
f 3/16/7 4/17/7 6/18/7
f 1/1/1 7/19/1 2/2/1
f 4/4/2 8/20/2 5/5/2
f 6/7/3 5/10/8 1/8/3
f 5/10/5 8/21/5 7/11/5
f 7/13/6 8/22/6 4/14/6
f 3/16/7 2/23/7 4/17/7
